<svg width="512" height="512" viewBox="0 0 512 512" xmlns="http://www.w3.org/2000/svg">
  <defs>
    <linearGradient id="bg" x1="0%" y1="0%" x2="100%" y2="100%">
      <stop offset="0%" style="stop-color:#1a1a2e;stop-opacity:1" />
      <stop offset="50%" style="stop-color:#16213e;stop-opacity:1" />
      <stop offset="100%" style="stop-color:#0f3460;stop-opacity:1" />
    </linearGradient>
    <filter id="glow">
      <feGaussianBlur stdDeviation="3" result="coloredBlur"/>
      <feMerge> 
        <feMergeNode in="coloredBlur"/>
        <feMergeNode in="SourceGraphic"/>
      </feMerge>
    </filter>
  </defs>
  
  <!-- Background -->
  <rect width="512" height="512" fill="url(#bg)"/>
  
  <!-- Card symbols -->
  <g transform="translate(256, 256)">
    <!-- Spade -->
    <g transform="translate(-120, -80)" fill="#ffd700" filter="url(#glow)">
      <path d="M0,0 L20,-20 L40,0 L30,10 L25,5 L25,25 L15,25 L15,5 L10,10 Z"/>
    </g>
    
    <!-- Heart -->
    <g transform="translate(-40, -80)" fill="#ff6b6b" filter="url(#glow)">
      <path d="M0,10 C0,0 20,0 20,10 C20,0 40,0 40,10 C40,20 20,30 0,10 Z"/>
    </g>
    
    <!-- Diamond -->
    <g transform="translate(40, -80)" fill="#4ecdc4" filter="url(#glow)">
      <path d="M20,0 L40,20 L20,40 L0,20 Z"/>
    </g>
    
    <!-- Club -->
    <g transform="translate(120, -80)" fill="#96ceb4" filter="url(#glow)">
      <circle cx="15" cy="15" r="8"/>
      <circle cx="25" cy="15" r="8"/>
      <circle cx="20" cy="25" r="8"/>
      <rect x="18" y="33" width="4" height="12"/>
    </g>
    
    <!-- Game title -->
    <text x="0" y="80" text-anchor="middle" fill="#ffd700" font-family="Arial, sans-serif" font-size="24" font-weight="bold" filter="url(#glow)">
      Duel d'Arcane
    </text>
  </g>
</svg>